<?xml version="1.0" encoding="UTF-8"?>
<!DOCTYPE svg PUBLIC "-//W3C//DTD SVG 1.1//EN" "http://www.w3.org/Graphics/SVG/1.1/DTD/svg11.dtd">
<!-- Creator: CorelDRAW 2020 (64-Bit) -->
<svg xmlns="http://www.w3.org/2000/svg" xml:space="preserve" width="128px" height="128px" version="1.1" style="shape-rendering:geometricPrecision; text-rendering:geometricPrecision; image-rendering:optimizeQuality; fill-rule:evenodd; clip-rule:evenodd"
viewBox="0 0 1278.2 1278.2"
 xmlns:xlink="http://www.w3.org/1999/xlink"
 xmlns:xodm="http://www.corel.com/coreldraw/odm/2003">
 <defs>
  <style type="text/css">
   <![CDATA[
    .fil0 {fill:#E6E6E6}
   ]]>
  </style>
 </defs>
 <g id="Layer_x0020_1">
  <metadata id="CorelCorpID_0Corel-Layer"/>
  <path class="fil0" d="M254.6 0l769 0c140,0 254.6,114.6 254.6,254.6l0 769c0,140 -114.6,254.6 -254.6,254.6l-769 0c-140,0 -254.6,-114.6 -254.6,-254.6l0 -769c0,-140 114.6,-254.6 254.6,-254.6zm-81.6 945.1c-12.6,0 -22.3,-3.1 -28.9,-9.5 -6.6,-6.3 -9.9,-15.7 -9.9,-28.4 0,-49.3 9.9,-90.6 29.8,-124 19.8,-33.3 41.8,-58.7 65.8,-76.2 24.1,-17.4 57.1,-38.2 99.2,-62.2 43.9,-24.6 74.7,-42.8 92.4,-54.6 17.8,-11.7 31.9,-24.6 42.4,-38.7 10.6,-14.2 15.8,-31.2 15.8,-51 0,-24 -2.7,-42.5 -8.1,-55.5 -5.4,-12.9 -14.6,-22 -27.5,-27.5 -12.9,-5.4 -31.4,-8.1 -55.5,-8.1l-96.5 0c-28.8,0 -49.9,3.9 -63.1,11.7 -13.2,7.9 -21.6,21.7 -25.2,41.5 -2.4,12.7 -6.7,22 -12.7,28 -6,6 -15,9 -27,9 -12.6,0 -22.3,-3.4 -28.9,-10.4 -6.6,-6.9 -9.3,-16.6 -8.1,-29.3 6.6,-42.7 23.4,-74.4 50.5,-95.1 27.1,-20.8 65.2,-31.1 114.5,-31.1l96.5 0c56.5,0 98.5,13.6 125.8,41 27.4,27.4 41.1,69.3 41.1,125.8 0,33.7 -8.3,62.7 -24.8,87 -16.6,24.4 -36.6,44.4 -60,60 -23.5,15.6 -58.3,36.7 -104.6,63.1 -34.9,19.9 -60.9,35.7 -78,47.4 -17.2,11.7 -32.9,26.7 -47.4,45.1 -14.4,18.3 -23.7,40.4 -27.9,66.3l297.6 0c12,0 21.3,3.3 27.9,9.9 6.6,6.6 10,15.9 10,27.9 0,12.1 -3.4,21.4 -10,28 -6.6,6.6 -15.9,9.9 -27.9,9.9l-337.3 0zm687.2 0c-69.2,0 -120.1,-16.4 -152.9,-49.1 -32.7,-32.8 -49.1,-83.8 -49.1,-152.9l0 -207.4c0,-69.2 16.4,-120.3 49.1,-153.3 32.8,-33.1 83.4,-49.3 152,-48.7l109.1 0c56.5,0 99.7,11.7 129.4,35.1 29.8,23.5 47.1,60.2 51.9,110.1 1.8,12.6 -0.6,22.2 -7.2,28.8 -6.7,6.6 -16.3,9.9 -28.9,9.9 -12,0 -21.2,-3.1 -27.5,-9.4 -6.3,-6.3 -10.4,-15.8 -12.2,-28.4 -3,-27.1 -12.3,-45.6 -27.9,-55.5 -15.7,-9.9 -41.5,-14.9 -77.6,-14.9l-109.1 0c-32.5,-0.6 -57.7,3 -75.8,10.8 -18,7.9 -30.8,20.8 -38.3,38.8 -7.5,18.1 -11.3,43.6 -11.3,76.7l0 207.4c0,33.1 3.9,58.5 11.8,76.2 7.8,17.7 20.5,30.5 38.3,38.3 17.7,7.8 43.1,11.8 76.2,11.8l108.2 0c28.9,0 51,-3.2 66.3,-9.5 15.3,-6.3 26.1,-17.1 32.5,-32.5 6.3,-15.3 9.4,-37.4 9.4,-66.3l0 -42.4 -70.3 -0.9c-25.3,0 -37.9,-12.6 -37.9,-37.8 0,-12.1 3.3,-21.4 9.9,-28 6.6,-6.6 16,-9.9 28,-9.9l108.2 0.9c12,0 21.3,3.3 28,9.9 6.6,6.6 9.9,15.9 9.9,28l0 80.2c0,63.8 -14.9,110.4 -44.7,139.8 -29.7,29.5 -76.2,44.2 -139.3,44.2l-108.2 0z"/>
 </g>
</svg>
